<svg xmlns="http://www.w3.org/2000/svg" viewBox="0 0 512 512" width="100%" height="100%">
  <!-- Circular Dark Background -->
  <circle cx="256" cy="256" r="240" fill="#1e293b" />
  
  <!-- Outer Glow Ring -->
  <circle cx="256" cy="256" r="236" fill="none" stroke="#ffd400" stroke-width="8" opacity="0.8" />
  
  <!-- Graduation Cap -->
  <!-- Cap Diamond -->
  <path d="M256 120 L400 190 L256 260 L112 190 Z" fill="#ffd400" />
  <!-- Cap Bottom Base -->
  <path d="M170 230 V290 C170 320, 342 320, 342 290 V230" fill="none" stroke="#ffd400" stroke-width="20" stroke-linecap="round" />
  <!-- Tassel -->
  <path d="M220 200 L140 260 V290" fill="none" stroke="#ffffff" stroke-width="8" stroke-linecap="round" stroke-linejoin="round" />
  <circle cx="140" cy="295" r="10" fill="#ffffff" />

  <!-- Exchange Loop / Trading Symbol below the cap -->
  <!-- Curved Left to Right arrow -->
  <path d="M160 370 C 200 340, 300 340, 340 370" fill="none" stroke="#ffffff" stroke-width="20" stroke-linecap="round" />
  <path d="M320 340 L350 375 L315 400" fill="none" stroke="#ffffff" stroke-width="20" stroke-linecap="round" stroke-linejoin="round" />

  <!-- Curved Right to Left arrow -->
  <path d="M352 390 C 312 420, 212 420, 172 390" fill="none" stroke="#ffd400" stroke-width="20" stroke-linecap="round" />
  <path d="M192 420 L162 385 L197 360" fill="none" stroke="#ffd400" stroke-width="20" stroke-linecap="round" stroke-linejoin="round" />
</svg>